PathFileType	4	(X/Y/Z)	C:\Users\Basilio\Documents\Thesis Gigler\squatting_fais\c3dfiles\058\SLS_back_pre1\markers_experimental.trc
DataRate	CameraRate	NumFrames	NumMarkers	Units	OrigDataRate	OrigDataStartFrame	OrigNumFrames
200.000000	200.000000	4	60	mm	200.000000	607	1215
Frame#	Time	FHD			LBHD			RBHD			C7			T10			CLAV			LSHO			LUUPA			LMUPA			LDUPA			LLEP			LMEP			LUL			LRFIN			RSHO			RUPA1			RMUPA			RDUPA			RLEP			RMEP			RRAD			RUL			RUFIN			LASI			RASI			USACR			LSACR			RSACR			LTHI1			LTHI2			LTHI3			LTHI4			LLFC			LMFC			LTIB1			LTIB2			LTIB3			LTIB4			LLMAL			LMMAL			LHEE			LMT1			LMT5			RTHI			RTHI2			RTHI3			RTHI4			RLFC			RMFC			RTIB1			RTIB2			RTIB3			RTIB4			RLMAL			RMMAL			RHEE			RMT1			RMT2			RMT5			LMT2			
		X1	Y1	Z1	X2	Y2	Z2	X3	Y3	Z3	X4	Y4	Z4	X5	Y5	Z5	X6	Y6	Z6	X7	Y7	Z7	X8	Y8	Z8	X9	Y9	Z9	X10	Y10	Z10	X11	Y11	Z11	X12	Y12	Z12	X13	Y13	Z13	X14	Y14	Z14	X15	Y15	Z15	X16	Y16	Z16	X17	Y17	Z17	X18	Y18	Z18	X19	Y19	Z19	X20	Y20	Z20	X21	Y21	Z21	X22	Y22	Z22	X23	Y23	Z23	X24	Y24	Z24	X25	Y25	Z25	X26	Y26	Z26	X27	Y27	Z27	X28	Y28	Z28	X29	Y29	Z29	X30	Y30	Z30	X31	Y31	Z31	X32	Y32	Z32	X33	Y33	Z33	X34	Y34	Z34	X35	Y35	Z35	X36	Y36	Z36	X37	Y37	Z37	X38	Y38	Z38	X39	Y39	Z39	X40	Y40	Z40	X41	Y41	Z41	X42	Y42	Z42	X43	Y43	Z43	X44	Y44	Z44	X45	Y45	Z45	X46	Y46	Z46	X47	Y47	Z47	X48	Y48	Z48	X49	Y49	Z49	X50	Y50	Z50	X51	Y51	Z51	X52	Y52	Z52	X53	Y53	Z53	X54	Y54	Z54	X55	Y55	Z55	X56	Y56	Z56	X57	Y57	Z57	X58	Y58	Z58	X59	Y59	Z59	X60	Y60	Z60	

608	3.035	-118.416488647461	1566.264526367188	-647.7310180664064	-276.1897583007813	1527.323364257813	-727.3497924804689	-101.6308670043946	1569.538330078125	-790.940124511719	-308.0185241699219	1380.050659179688	-737.5735473632814	-391.7351989746095	1093.86328125	-731.3336181640626	-159.3383483886719	1308.670288085938	-717.1276245117189	-164.636215209961	1365.303466796875	-868.9549560546877	-12.38311862945557	1301.31298828125	-968.090026855469	10.94438457489014	1337.857055664063	-940.1790771484377	56.31328582763673	1301.161987304688	-954.3469848632815	129.9586639404297	1305.511962890625	-931.7292480468752	132.7616729736328	1248.696533203125	-898.9176025390627	395.8500976562501	1342.779907226563	-890.0211181640627	487.6931457519532	1340.115112304688	-806.2426757812502	-187.0981140136719	1373.5361328125	-571.9951782226564	-34.67147445678712	1288.96826171875	-470.2236938476564	-12.80344867706299	1326.765625	-495.9248352050782	34.00300979614259	1297.489013671875	-474.9918518066407	102.1981735229492	1288.79541015625	-487.6271362304689	105.9677886962891	1229.276245117188	-537.6672363281251	358.3205871582032	1320.470458984375	-587.5926513671876	368.7530517578126	1334.536254882813	-514.8314819335939	454.4642028808595	1355.10546875	-588.1272583007814	-276.0150451660157	848.0561523437502	-863.6734619140627	-263.4080505371094	865.5198974609377	-624.8074951171876	-437.4820556640626	982.4139404296877	-728.8250732421876	-451.7691650390626	950.9746093750002	-754.1947631835939	-449.9122924804689	954.309753417969	-696.0079956054689	-367.7429809570313	588.7955932617189	-958.6212158203127	-343.9906616210938	506.9468688964845	-971.457458496094	-297.9887390136719	499.7933959960939	-955.8323364257815	-377.7544555664063	456.9888000488282	-969.039978027344	-402.4999389648439	378.6419677734376	-964.7339477539065	-365.0597839355469	335.4674682617188	-844.6809082031252	-502.9971008300782	283.6767578125001	-926.0844726562502	-550.0109863281251	344.9587402343751	-953.8980102539065	-547.1173706054689	301.0666198730469	-948.984802246094	-620.5567016601564	275.8806762695313	-913.548034667969	-812.0422973632815	314.3358154296876	-864.953308105469	-785.3223876953127	248.9879608154297	-803.2998657226565	-795.1412353515627	348.1277770996094	-787.8604125976565	-911.0893554687502	160.5161437988282	-828.2136840820315	-935.0698242187502	243.0112915039063	-893.716247558594	-280.4471435546876	682.3026733398439	-563.3435058593751	-218.1824951171876	659.9916381835939	-576.9100341796876	-192.0018310546876	678.4602050781251	-584.2355346679689	-200.4276275634766	582.8125610351564	-604.5438232421876	-117.5574569702149	451.601776123047	-655.3572998046876	-113.7248229980469	465.737518310547	-789.7688598632815	-175.180160522461	288.2164916992188	-763.5715332031251	-236.6290893554688	230.8326873779297	-689.3728027343751	-217.2866821289063	214.0587921142579	-731.1823730468751	-257.9049682617188	188.8632049560547	-763.0925903320314	-356.8046569824219	117.501335144043	-709.1737060546876	-330.7550354003907	135.3999633789063	-801.3237304687502	-438.0932006835939	104.4335708618164	-767.4239501953126	-226.3955078125001	57.50936889648439	-779.9418945312502	-223.2698059082032	59.3143768310547	-727.5267333984376	-274.3577880859376	30.77670860290528	-675.1948242187501	-932.743347167969	171.6196594238282	-864.6706542968752	
609	3.04	-118.0034408569336	1565.684448242188	-648.0029296875001	-275.8537597656251	1526.669067382813	-727.6808471679689	-101.0098571777344	1569.081420898438	-791.0637817382815	-307.7704162597657	1379.636352539063	-737.8424072265626	-391.5799865722657	1093.581176757813	-731.5466308593751	-159.0015411376953	1308.2060546875	-717.3296508789064	-164.2362976074219	1364.674926757813	-869.2501220703127	-12.02335357666016	1300.843383789063	-968.259948730469	11.19865703582764	1337.26171875	-940.302185058594	56.65602111816408	1300.628662109375	-954.4756469726565	130.3732147216797	1304.845703125	-931.8438110351565	132.4576721191407	1248.18896484375	-898.6091308593752	396.0791625976564	1342.110961914063	-890.1685791015627	487.9877014160157	1339.505249023438	-806.4739990234377	-186.6476440429688	1373.201538085938	-572.1621704101564	-34.52252197265626	1288.448486328125	-470.2589721679689	-12.94769382476807	1326.008422851563	-496.0382690429689	34.26050186157227	1296.685180664063	-475.2209472656251	102.2979888916016	1288.349243164063	-487.6701049804689	106.1421127319336	1228.66943359375	-537.8753662109376	357.9940185546876	1319.463623046875	-587.2806396484376	369.2797546386719	1333.955932617188	-515.0001831054689	455.6893005371095	1354.616943359375	-587.8330078125001	-276.0293579101563	847.661071777344	-863.803649902344	-263.5044555664063	864.8584594726565	-624.9769287109376	-437.4543457031251	982.043640136719	-728.9368286132814	-451.627655029297	950.6209716796877	-754.3765258789064	-449.9612121582032	953.9615478515627	-696.0878295898439	-367.8711853027344	588.0904541015626	-958.6333007812502	-344.1276855468751	506.4149475097657	-971.3575439453127	-298.2387695312501	499.2026367187501	-955.7120361328127	-377.9996337890626	456.4873046875001	-968.896423339844	-402.8782958984376	378.1928100585938	-964.5417480468752	-365.3362731933594	335.0661315917969	-844.5437011718752	-502.9491271972657	283.2995605468751	-926.1737060546877	-550.5690917968751	344.7409362792969	-953.6237792968752	-547.5326538085939	300.6618652343751	-949.009704589844	-620.9992065429689	275.4436950683594	-913.4929809570315	-812.5119628906252	314.0533752441407	-864.8670654296877	-785.5469360351565	248.7835388183594	-803.2882080078127	-795.7893676757815	347.6298217773438	-787.8083496093752	-911.926208496094	159.9429016113282	-827.7614746093752	-935.1299438476565	242.2543182373047	-893.6797485351565	-280.5108032226563	681.8224487304689	-563.4601440429689	-218.1986541748047	659.7857055664064	-577.0782470703126	-191.9371948242188	678.0935058593751	-584.2689819335939	-200.1243743896485	582.4336547851564	-604.7120361328126	-117.2640380859375	451.4104309082032	-655.5408935546876	-113.4688262939453	465.6143188476564	-789.8540649414065	-174.927719116211	288.1898498535157	-763.7760620117189	-236.3829040527344	230.8003234863282	-689.6022949218751	-217.0394439697266	214.1678619384766	-731.3748779296876	-257.8621826171876	188.7822418212891	-763.2207031250001	-356.7593994140626	117.6072311401367	-709.2916259765626	-330.7855529785157	135.36474609375	-801.5120849609377	-438.0758361816407	104.4885787963867	-767.4761962890626	-226.6487426757813	57.37316131591798	-779.9637451171877	-223.2178344726563	59.29576873779298	-727.6047973632814	-274.4204406738282	30.94614601135255	-675.2456665039064	-932.8580322265627	171.4427032470703	-864.703796386719	
610	3.045	-117.6759338378907	1565.024047851563	-648.5813598632814	-275.3857727050782	1526.17529296875	-728.0133666992189	-100.5934677124024	1568.603637695313	-791.2363891601565	-307.4497985839844	1379.343017578125	-738.1094360351564	-391.5220642089845	1093.301879882813	-731.7050781250001	-159.1198425292969	1307.787475585938	-717.6010131835939	-164.4480438232422	1364.19287109375	-869.3543090820315	-11.81094360351563	1300.379638671875	-968.3522949218752	10.94777774810791	1336.658203125	-940.505798339844	56.92250823974611	1299.982177734375	-954.637878417969	130.6241760253907	1304.287231445313	-931.9251098632815	132.4553527832032	1247.227783203125	-898.489440917969	396.6273803710939	1341.639770507813	-890.464538574219	488.3513793945314	1338.953002929688	-806.6651000976565	-186.506103515625	1372.71630859375	-572.4805908203126	-34.26430892944337	1288.032104492188	-470.3235778808595	-12.78338241577149	1325.287963867188	-496.6477355957032	34.38413238525391	1296.05810546875	-475.4630432128907	102.569450378418	1287.855102539063	-487.7921752929689	106.6608428955078	1227.940795898438	-538.1268920898439	358.2813720703126	1318.72509765625	-587.5076904296876	369.3227844238282	1333.15673828125	-515.2117309570314	455.5668334960939	1353.890747070313	-587.9431762695314	-276.0626525878907	847.1746826171877	-863.985046386719	-263.4571533203126	864.4724731445315	-625.0612182617189	-437.4673767089845	981.699645996094	-728.9767456054689	-451.5491333007814	950.3323974609377	-754.4928588867189	-449.9641723632814	953.6970825195315	-696.1427001953126	-367.9232177734376	587.5486450195314	-958.6463623046877	-344.4455566406251	505.8451232910157	-971.2673339843752	-298.4580383300782	498.6260681152345	-955.5156860351565	-378.3227539062501	455.886199951172	-968.7628173828127	-403.262908935547	377.6816711425782	-964.216979980469	-366.0664062500001	334.7560729980469	-844.1233520507815	-502.7326660156251	283.0803222656251	-926.3558349609377	-550.9853515625001	344.2520446777344	-953.5020751953127	-547.9855957031251	300.0552062988282	-948.6647949218752	-621.4625854492189	275.2137145996094	-913.4580688476565	-812.9487304687502	313.8072204589844	-864.8469848632815	-786.167907714844	248.7691650390626	-803.1246337890627	-796.4168701171877	347.2710571289063	-787.8710937500002	-912.114440917969	159.7650756835938	-827.7159423828127	-935.5089111328127	241.7769470214844	-893.6699829101565	-280.3982238769532	681.2544555664064	-563.5692749023439	-218.1400604248047	659.3525390625001	-577.1897583007814	-191.8902587890625	677.6618041992189	-584.3188476562501	-200.0123748779297	582.1651611328126	-604.9244995117189	-117.1945877075196	451.2075805664064	-655.5943603515626	-113.1121444702149	465.4705200195314	-789.8964843750002	-174.6434631347657	288.2188720703126	-764.0787963867189	-236.0748901367188	230.7850799560547	-689.9062500000001	-216.9689331054688	214.0992889404297	-731.6171264648439	-258.0003356933594	188.7293243408203	-763.4296264648439	-356.6839599609376	117.6853103637696	-709.4697875976564	-330.7824096679688	135.4007263183594	-801.734558105469	-438.0679931640626	104.5027389526367	-767.5865478515626	-226.8385925292969	57.0512046813965	-780.1254882812502	-223.2056427001954	59.33641433715822	-727.7050781250001	-274.4219665527344	31.04096031188966	-675.3109741210939	-932.9348754882815	171.2196807861328	-864.7532958984377	
611	3.05	-117.4695129394532	1564.469116210938	-648.1851806640626	-274.7727966308594	1525.88037109375	-728.3332519531251	-100.1056365966797	1568.209594726563	-791.3842773437502	-307.1367492675782	1378.93408203125	-738.4450683593751	-391.4150390625001	1093.056762695313	-731.8763427734376	-158.9580535888672	1307.281982421875	-717.8615112304689	-164.2303924560547	1363.646850585938	-869.6042480468752	-11.45673656463623	1299.744140625	-968.4470214843752	11.21403121948242	1336.080810546875	-940.6182861328127	57.21726989746095	1299.537475585938	-954.756530761719	130.8907775878907	1303.74755859375	-932.0043945312502	133.0614013671875	1246.63818359375	-898.7705688476565	396.9473876953126	1340.78955078125	-890.6783447265627	488.6929321289064	1338.269897460938	-806.8465576171877	-186.0148010253907	1372.334716796875	-572.7849731445314	-34.14293289184571	1287.410400390625	-470.468231201172	-12.62221050262452	1324.81689453125	-496.6487731933595	34.54830551147462	1295.49169921875	-475.5881958007814	102.7458801269532	1287.218017578125	-487.9358215332032	106.8423385620117	1227.205200195313	-538.1054077148439	358.4118652343751	1317.953125	-587.5165405273439	369.6280517578126	1332.37890625	-515.3642578125001	455.3284301757814	1352.893920898438	-588.5725097656251	-276.3484191894532	846.6323852539065	-864.0841064453127	-263.3713073730469	864.2439575195315	-625.0854492187501	-437.3752441406251	981.536804199219	-729.0750732421876	-451.4413452148439	950.2163085937502	-754.6022338867189	-449.9585266113282	953.457214355469	-696.2319946289064	-368.1569213867188	587.1503295898439	-958.624450683594	-344.7360839843751	505.2458801269532	-971.1392822265627	-298.7375488281251	498.0064697265626	-955.4509887695315	-378.6778869628907	455.4361877441407	-968.6159667968752	-403.5310974121095	377.1740417480469	-964.004089355469	-366.3203430175782	334.4194946289063	-844.0803833007815	-502.579803466797	282.8332214355469	-926.4694824218752	-551.3162841796876	343.6271057128907	-953.3017578125002	-548.1520996093751	299.5482482910157	-948.4487915039065	-622.1575927734376	274.6317138671876	-913.121276855469	-813.4113769531252	313.4913940429688	-864.8665771484377	-786.8138427734377	248.5246887207032	-802.919860839844	-796.8319091796877	347.0821228027344	-787.7899169921877	-912.608581542969	159.2197723388672	-827.5066528320315	-936.3160400390627	241.6923217773438	-893.5181884765627	-280.3226013183594	681.1321411132814	-563.6364135742189	-217.8604431152344	658.9227294921876	-577.3645019531251	-191.874252319336	677.3814086914064	-584.3606567382814	-199.9829559326172	581.8565673828126	-605.0730590820314	-117.0859603881836	451.0652770996095	-655.6609497070314	-112.8861236572266	465.3977966308595	-790.0047607421877	-174.4821166992188	288.2245483398438	-764.3619995117189	-235.8344726562501	230.5054779052735	-690.1685180664064	-216.8237304687501	213.8509368896485	-731.8543701171876	-257.9399414062501	188.6673583984375	-763.6624755859376	-356.6487121582032	117.7918548583985	-709.6876831054689	-330.7409973144532	135.4806213378907	-801.8848876953127	-438.0747375488282	104.4567947387696	-767.6506347656251	-227.130844116211	56.86977767944337	-780.1403808593752	-223.0405883789063	59.42736816406251	-727.8582153320314	-274.4001770019532	31.13476943969727	-675.3720092773439	-933.0120239257815	170.9971771240235	-864.8027343750002	
